<svg width="40" height="44" viewBox="0 0 40 44" fill="none" xmlns="http://www.w3.org/2000/svg">
<path d="M0 1.53846C0 1.13044 0.162087 0.739122 0.450605 0.450605C0.739122 0.162087 1.13044 0 1.53846 0H38.4615C38.8696 0 39.2609 0.162087 39.5494 0.450605C39.8379 0.739122 40 1.13044 40 1.53846V7.69231C39.9999 8.07172 39.8597 8.43772 39.6062 8.72L26.1538 23.6677V38.4615C26.1536 38.7843 26.0519 39.0988 25.863 39.3605C25.6741 39.6223 25.4078 39.818 25.1015 39.92L15.8708 42.9969C15.6396 43.0739 15.3935 43.0949 15.1526 43.0582C14.9118 43.0214 14.6831 42.928 14.4854 42.7856C14.2877 42.6432 14.1267 42.4559 14.0155 42.239C13.9044 42.0222 13.8463 41.7821 13.8462 41.5385V23.6677L0.393846 8.72C0.140333 8.43772 6.8155e-05 8.07172 0 7.69231V1.53846ZM3.07692 3.07692V7.10154L16.5292 22.0492C16.7827 22.3315 16.923 22.6975 16.9231 23.0769V39.4031L23.0769 37.3538V23.0769C23.077 22.6975 23.2173 22.3315 23.4708 22.0492L36.9231 7.10154V3.07692H3.07692Z" fill="black"/>
</svg>
