<svg width="40" height="44" viewBox="0 0 40 44" fill="none" xmlns="http://www.w3.org/2000/svg">
<path fill-rule="evenodd" clip-rule="evenodd" d="M29.057 10C29.0196 9.8386 28.9808 9.67684 28.9402 9.51492C28.4122 7.40276 27.5808 5.10766 26.225 3.3C24.827 1.43604 22.7858 0 20 0C17.2142 0 15.173 1.43604 13.775 3.3C12.4192 5.10766 11.5877 7.40276 11.0597 9.51494C11.0192 9.67684 10.9803 9.8386 10.9429 10H7.74221C4.58343 10 1.96563 12.4491 1.75551 15.6009L0.288827 37.6008C0.0579669 41.064 2.80477 44 6.27555 44H33.7244C37.1952 44 39.942 41.064 39.7112 37.6008L38.2444 15.6009C38.0344 12.4491 35.4166 10 32.2578 10H29.057ZM12 20C13.146 20 13.9961 19.1368 14 17.9963C14.0003 17.9488 14.0009 17.9012 14.0017 17.8536C14.0034 17.7483 14.007 17.5891 14.0144 17.3839C14.029 16.973 14.0586 16.38 14.1181 15.6661C14.1603 15.1595 14.2172 14.5972 14.2935 14H25.7066C25.7828 14.5972 25.8396 15.1595 25.882 15.6661C25.9414 16.38 25.971 16.973 25.9856 17.3839C25.993 17.5891 25.9966 17.7483 25.9984 17.8536C25.9992 17.9027 25.9998 17.9517 26 18.0008C26 18.0008 26 20 28 20C30 20 30 17.9973 30 17.9973C29.9998 17.9272 29.999 17.8571 29.9978 17.787C29.9956 17.658 29.9914 17.4734 29.983 17.2411C29.9666 16.777 29.9336 16.12 29.868 15.3339C29.834 14.924 29.7906 14.4762 29.7358 14H32.2578C33.3108 14 34.1834 14.8164 34.2534 15.867L35.72 37.867C35.797 39.0214 34.8814 40 33.7244 40H6.27555C5.11863 40 4.20303 39.0214 4.27997 37.867L5.74665 15.867C5.81669 14.8164 6.68929 14 7.74221 14H10.2642C10.2093 14.4762 10.1661 14.924 10.1319 15.3339C10.0664 16.12 10.0335 16.777 10.0169 17.2411C10.0086 17.4734 10.0044 17.658 10.0022 17.787C10.0011 17.8557 10.0002 17.9244 10 17.9932C9.99849 19.1344 10.8567 20 12 20ZM15.067 10H24.933C24.4706 8.30644 23.842 6.78932 23.025 5.7C22.173 4.56396 21.2142 4 20 4C18.7858 4 17.827 4.56396 16.975 5.7C16.158 6.78932 15.5294 8.30644 15.067 10Z" fill="black"/>
</svg>
