<svg width="48" height="46" viewBox="0 0 48 46" fill="none" xmlns="http://www.w3.org/2000/svg">
<path d="M8.59787 43.55C8.36387 44.882 9.67787 45.923 10.8359 45.329L24.0059 38.561L37.1729 45.329C38.3309 45.923 39.6449 44.882 39.4109 43.553L36.9209 29.363L47.4869 19.295C48.4769 18.353 47.9669 16.631 46.6409 16.445L31.9469 14.357L25.3949 1.37601C25.2701 1.11288 25.0731 0.890563 24.827 0.73489C24.5809 0.579218 24.2956 0.496582 24.0044 0.496582C23.7131 0.496582 23.4279 0.579218 23.1817 0.73489C22.9356 0.890563 22.7387 1.11288 22.6139 1.37601L16.0619 14.36L1.36787 16.448C0.0448665 16.634 -0.468133 18.356 0.518867 19.298L11.0879 29.366L8.59787 43.556V43.55ZM23.3129 35.249L12.2549 40.931L14.3369 29.06C14.387 28.7867 14.3685 28.5053 14.2832 28.2409C14.1979 27.9765 14.0483 27.7374 13.8479 27.545L5.12987 19.235L17.2859 17.507C17.5372 17.4678 17.7754 17.3689 17.9805 17.2185C18.1857 17.0682 18.3518 16.8708 18.4649 16.643L23.9999 5.66901L29.5409 16.643C29.654 16.8708 29.82 17.0682 30.0252 17.2185C30.2303 17.3689 30.4686 17.4678 30.7199 17.507L42.8759 19.232L34.1579 27.542C33.957 27.7347 33.8071 27.9743 33.7218 28.2393C33.6364 28.5043 33.6182 28.7863 33.6689 29.06L35.7509 40.931L24.6929 35.249C24.4793 35.138 24.2421 35.0801 24.0014 35.0801C23.7607 35.0801 23.5265 35.138 23.3129 35.249Z" fill="black"/>
</svg>
